<svg xmlns="http://www.w3.org/2000/svg" viewBox="0 0 565.57 565.57"><g id="Layer_2" data-name="Layer 2"><g id="Layer_1-2" data-name="Layer 1"><rect width="565.57" height="565.57" style="fill:none"/><path d="M316.52,188.32l20.59-11.89L371,156.85l-33.49-19.34L282.79,105.9l-54.52,31.49-33.49,19.32-65.3,37.7V358.92l33.93-19.58L337.25,239l33.49-19.34-33.5-19.32ZM163.41,214l65.3-37.68L262.19,157l20.6-11.89,20.83,12L283,169l-33.48,19.32-86.13,49.74Zm0,86.67V276.74L283,207.66l20.71,12Z" style="fill:#000"/><polygon points="436.09 194.41 436.09 244.97 425.35 251.17 402.17 264.55 391.87 270.49 207.19 377.11 228.41 389.35 402.17 289.04 413.06 282.74 436.09 269.44 436.09 370.92 282.35 459.67 248.98 440.4 248.87 440.33 282.79 420.75 402.17 351.84 402.17 327.7 261.89 408.69 227.97 428.27 194.48 408.95 173.27 396.7 139.78 377.36 173.71 357.78 358.38 251.17 391.87 231.83 402.17 225.88 402.17 213.99 391.33 207.73 357.84 188.41 391.77 168.81 425.25 188.15 436.09 194.41" style="fill:#000"/></g></g></svg>